<?xml version="1.0" encoding="utf-8"?>
<!-- Generator: Adobe Illustrator 16.0.0, SVG Export Plug-In . SVG Version: 6.00 Build 0)  -->
<!DOCTYPE svg PUBLIC "-//W3C//DTD SVG 1.1//EN" "http://www.w3.org/Graphics/SVG/1.1/DTD/svg11.dtd">
<svg version="1.1" id="Layer_1" xmlns="http://www.w3.org/2000/svg" xmlns:xlink="http://www.w3.org/1999/xlink" x="0px" y="0px"
	 width="390.826px" height="168.808px" viewBox="0 0 390.826 168.808" enable-background="new 0 0 390.826 168.808"
	 xml:space="preserve">
<g>
	<g>
		<path fill="#6D6E71" d="M13.721,158.058v-30.051c3.77,0,7.85-0.043,11.619,0c6.051,0,10.424,4.203,10.424,9.99
			c0,5.789-4.373,9.896-10.424,9.896h-9.475v10.164H13.721z M25.34,145.88c4.628,0,8.275-3.17,8.275-7.93
			c0-4.754-3.51-7.973-8.275-7.973h-9.475v15.902H25.34z"/>
		<path fill="#6D6E71" d="M45.914,158.397c-3.604,0-7.33-1.881-7.33-5.824c0-4.498,3.943-6.693,8.103-6.693
			c2.567,0,5.192,0.52,7.593,1.545v-3.6c0-4.025-3.693-4.936-6.99-4.936c-2.4,0-4.889,0.559-6.646,1.596l-0.474-1.719
			c1.925-1.076,4.676-1.715,7.381-1.715c4.459,0,8.661,1.672,8.661,6.813v9.436c0,2.488-0.137,3.902,2.607,3.557l0.086,1.414
			c-3.517,0.557-4.455-0.686-4.332-3.938C52.947,157.333,49.343,158.397,45.914,158.397z M54.279,149.187
			c-2.364-1.205-4.893-1.676-7.337-1.631c-3.087,0-6.344,1.465-6.344,4.846c0,3.17,2.78,4.242,5.654,4.242
			c3.351,0,7.124-1.496,8.026-5.059V149.187z"/>
		<path fill="#6D6E71" d="M72.444,137.099c2.015,0.035,3.82,0.592,5.196,1.582l-0.737,1.805c-1.325-0.992-3.036-1.422-4.719-1.422
			c-3.08,0-6.044,2.107-6.044,5.625v13.369h-2.055v-15.904c0-2.014-0.047-3.301-2.661-2.953l-0.079-1.85
			c3.293-0.555,4.629,0.693,4.629,3.092C67.342,137.997,70.05,136.966,72.444,137.099z"/>
		<path fill="#6D6E71" d="M85.991,137.396h8.016v1.758h-8.016V150.3c0,4.281,1.336,6.051,4.022,6.09c1.3,0,2.878-0.342,4.716-0.988
			l0.311,1.758c-1.932,0.682-3.694,0.99-5.149,0.99c-3.863,0-5.953-2.361-5.953-7.807v-11.189l-4.72-0.131v-1.627h4.72l0.169-6.301
			h1.885V137.396z"/>
		<path fill="#6D6E71" d="M119.891,158.397c-5.444,0-10.843-3.596-10.843-10.713c0-7.164,5.445-10.633,10.887-10.633
			c5.44,0,10.806,3.518,10.806,10.633C130.741,154.802,125.296,158.397,119.891,158.397z M119.891,156.563
			c4.373,0,8.796-3,8.796-8.879c0-5.871-4.38-8.701-8.752-8.744c-4.416-0.051-8.828,2.83-8.828,8.744
			C111.107,153.563,115.483,156.563,119.891,156.563z"/>
		<path fill="#6D6E71" d="M138.194,139.2h-4.846v-1.805h4.846v-3.73c0-7.412,5.834-8.445,11.358-6.092l-0.426,1.672
			c-4.246-1.838-8.871-1.578-8.871,4.467v3.684h7.976v1.805h-7.976v18.857h-2.062V139.2z"/>
		<path fill="#6D6E71" d="M158.427,130.022v-1.979h21.858v1.979h-9.86v28.035h-2.141v-28.035H158.427z"/>
		<path fill="#6D6E71" d="M189.97,137.099c2.015,0.035,3.819,0.592,5.188,1.582l-0.727,1.805c-1.328-0.992-3.043-1.422-4.715-1.422
			c-3.087,0-6.044,2.107-6.044,5.625v13.369h-2.059v-15.904c0-2.014-0.043-3.301-2.657-2.953l-0.087-1.85
			c3.3-0.555,4.629,0.693,4.629,3.092C184.868,137.997,187.569,136.966,189.97,137.099z"/>
		<path fill="#6D6E71" d="M204.506,158.397c-3.604,0-7.329-1.881-7.329-5.824c0-4.498,3.938-6.693,8.099-6.693
			c2.57,0,5.181,0.52,7.586,1.545v-3.6c0-4.025-3.69-4.936-6.987-4.936c-2.4,0-4.892,0.559-6.646,1.596l-0.47-1.719
			c1.928-1.076,4.672-1.715,7.373-1.715c4.463,0,8.665,1.672,8.665,6.813v9.436c0,2.488-0.13,3.902,2.61,3.557l0.083,1.414
			c-3.509,0.557-4.455-0.686-4.332-3.938C211.54,157.333,207.936,158.397,204.506,158.397z M212.862,149.187
			c-2.361-1.205-4.882-1.676-7.33-1.631c-3.091,0-6.348,1.465-6.348,4.846c0,3.17,2.788,4.242,5.662,4.242
			c3.34,0,7.112-1.496,8.016-5.059V149.187z"/>
		<path fill="#6D6E71" d="M238.367,158.058v-12.561c0-4.117-2.744-6.514-6.73-6.514c-4.076,0-7.033,2.57-7.033,6.859v12.215h-2.055
			v-15.301c0-3.309-0.35-3.99-2.625-3.65l-0.036-1.795c3.127-0.473,4.586,0.209,4.586,3.514c1.849-2.658,4.376-3.82,7.633-3.773
			c5.221,0,8.319,3.469,8.319,8.445v12.561H238.367z"/>
		<path fill="#6D6E71" d="M247.567,152.313c0.354,3.004,3.74,4.377,7.084,4.377c3.387,0,6.863-1.242,6.863-4.203
			c0-3.82-4.076-3.82-6.82-4.16c-4.123-0.469-8.528-1.197-8.528-5.447c0-4.283,4.112-5.828,8.362-5.828
			c4.282,0,8.352,1.762,8.352,5.441h-1.889c0-2.57-3.213-3.727-6.434-3.727c-3.127,0-6.727,1.156-6.514,4.072
			c0,3.178,4.506,3.428,6.899,3.773c4.333,0.596,8.669,0.986,8.536,5.875c0,4.123-4.203,5.91-8.875,5.91
			c-4.373,0-8.575-1.707-9.045-6.084H247.567z"/>
		<path fill="#6D6E71" d="M269.003,147.772v-19.729h2.151v19.684c0,5.529,3.727,8.662,9.132,8.662c5.354,0,9.04-3.133,9.04-8.662
			v-19.684h2.102v19.729c0,6.686-4.585,10.625-11.142,10.625C273.686,158.397,269.003,154.458,269.003,147.772z"/>
		<path fill="#6D6E71" d="M315.045,158.058v-12.561c0-4.117-2.747-6.514-6.733-6.514c-4.073,0-7.026,2.57-7.026,6.859v12.215h-2.065
			v-15.301c0-3.309-0.336-3.99-2.614-3.65l-0.043-1.795c3.134-0.473,4.589,0.209,4.589,3.514c1.842-2.658,4.372-3.82,7.629-3.773
			c5.235,0,8.319,3.469,8.319,8.445v12.561H315.045z"/>
		<path fill="#6D6E71" d="M324.982,128.687c0.689,0.047,1.376,0.523,1.376,1.461c0,0.947-0.643,1.412-1.336,1.463
			c-0.723,0.037-1.499-0.477-1.499-1.463C323.523,129.163,324.252,128.653,324.982,128.687z M325.924,158.058h-2.008v-20.662h2.008
			V158.058z"/>
		<path fill="#6D6E71" d="M342.483,158.397c-5.46,0-10.854-3.596-10.854-10.713c0-7.164,5.441-10.633,10.886-10.633
			c5.448,0,10.807,3.518,10.807,10.633C353.322,154.802,347.87,158.397,342.483,158.397z M342.483,156.563
			c4.357,0,8.777-3,8.777-8.879c0-5.871-4.373-8.701-8.745-8.744c-4.412-0.051-8.828,2.83-8.828,8.744
			C333.687,153.563,338.056,156.563,342.483,156.563z"/>
		<path fill="#6D6E71" d="M375.307,158.058v-12.561c0-4.117-2.741-6.514-6.727-6.514c-4.08,0-7.034,2.57-7.034,6.859v12.215h-2.058
			v-15.301c0-3.309-0.347-3.99-2.621-3.65l-0.036-1.795c3.127-0.473,4.585,0.209,4.585,3.514c1.842-2.658,4.369-3.82,7.633-3.773
			c5.229,0,8.312,3.469,8.312,8.445v12.561H375.307z"/>
	</g>
	<g>
		<path fill="#00A2D1" d="M64.494,10.409c19.735,0,40.189,10.945,45.519,33.708H93.884c-5.048-12.524-16.277-18.297-29.531-18.44
			c-20.599,0-34.298,14.979-34.298,36.452c0,20.015,13.699,35.997,34.298,35.997c13.832,0,25.494-6.764,29.957-20.164h16.284
			c-5.044,24.641-25.787,35.443-46.241,35.443c-27.372,0-51.145-18.869-51.145-51.276C13.208,29.565,36.981,10.409,64.494,10.409"/>
		<polygon fill="#00A2D1" points="163.294,98.862 163.294,112.397 114.609,112.397 114.609,98.862 130.6,98.862 130.6,24.963 
			115.902,24.963 115.902,11.552 162.001,11.552 162.001,24.963 147.307,24.963 147.307,98.862 		"/>
		<path fill="#00A2D1" d="M234.882,59.387c10.525,3.602,16.28,11.957,16.28,23.334c0,18.013-12.388,29.677-31.982,29.677h-45.09
			V11.563h40.912c18.295,0,31.684,9.364,31.684,28.381C246.686,48.438,242.808,55.495,234.882,59.387 M190.804,26.106v27.805h23.047
			c9.654,0,16.276-3.744,16.428-13.545c0-9.938-6.633-14.26-16.428-14.26H190.804z M190.804,67.587V97.7h27.379
			c9.355,0,15.974-5.322,16.414-14.979c0-5.04-1.729-9.079-5.185-11.947c-3.899-2.887-8.492-3.187-13.114-3.187H190.804z"/>
		<polygon fill="#00A2D1" points="306.6,98.862 306.6,112.397 257.915,112.397 257.915,98.862 273.903,98.862 273.903,24.963 
			259.214,24.963 259.214,11.552 305.308,11.552 305.308,24.963 290.613,24.963 290.613,98.862 		"/>
		<polygon fill="#00A2D1" points="334.257,97.267 377.618,97.267 377.618,112.397 317.404,112.397 317.404,11.552 334.257,11.552 		
			"/>
	</g>
</g>
<g>
</g>
<g>
</g>
<g>
</g>
<g>
</g>
<g>
</g>
<g>
</g>
</svg>
